
<svg viewBox="0 0 466 74.1" width="100" height="100">
	<g>
		<g>
			<polygon
				fill="#ff0201"
				points="36.2,0.7 18,0.7 0,73.2 18.1,73.2 29.4,27.8 47.5,27.8
				54.3,0.7" />
			<polygon
				fill="#125bff"
				points="72.4,0.7 65.6,27.8 61.1,46 43,46 36.2,73.2 54.3,73.2
				72.5,73.2 83.8,27.8 90.5,0.7" />
		</g>
		<path
			class="logo-text"
			fill="var(--white)"
			d="M188.4,5c0,1.5-0.5,2.6-1.6,3.6c-1,0.9-2.2,1.4-3.4,1.4S181,9.5,180,8.6s-1.6-2.1-1.6-3.6s0.5-2.6,1.6-3.6
			c1-0.9,2.2-1.4,3.4-1.4s2.4,0.5,3.4,1.4C187.9,2.4,188.4,3.6,188.4,5z
			M108.7,0.6h30c8.3,0,14.8,2.4,19,6.4c3,3.1,4.7,6.9,4.7,11.6
			v0.2c0,9.4-5.8,14.3-11.5,16.8c8.6,2.6,15.5,7.6,15.5,17.5v0.2c0,12.4-10.5,19.8-26.3,19.8h-31.3L108.7,0.6L108.7,0.6z
			M137.3,33
			c9.8,0,16.7-4.5,16.7-13v-0.2c0-7.2-5.7-11.8-16.1-11.8h-21.1v25H137.3z
			M140.2,65.8c11,0,17.8-4.9,17.8-13v-0.2
			c0-7.9-6.6-12.4-19.3-12.4h-22v25.6H140.2z
			M179.4,19.6h8v53.6h-8V19.6z
			M208.6,56.2V26.7h-12.1v-7h12.1v-19h8v19h22v7h-22v28.5
			c0,7.2,3.4,11.8,9.9,11.7c4.5-0.1,8.1-0.5,11.4-1.9v6.8c-2.8,1.5-7.9,2.4-13.3,2.3C214.9,73.9,208.6,67.1,208.6,56.2z
			M250.1,0.6
			h17.2l19.1,30.7l19.1-30.7h17.2v72.5h-15.9V25.8l-20.4,31H286l-20.3-30.7v47h-15.6V0.6z
			M336.8,0.6h54.7v14.2h-38.9v14.7H385v14.2
			h-32.3v15.2h39.4v14.2h-55.2V0.6H336.8z
			M421.9,36.3L397.7,0.7h18.7l15.2,23.5l15.3-23.5H465l-24.2,35.4L466,73.2h-18.7L431,48.3
			l-16.4,24.9h-18.1L421.9,36.3z" />
	</g>
</svg>
