
<svg width="474px" height="85px" viewBox="0 0 474 85" version="1.1" xmlns="http://www.w3.org/2000/svg" xmlns:xlink="http://www.w3.org/1999/xlink">
    <g id="Page-1" stroke="none" stroke-width="1" fill="none" fill-rule="evenodd">
        <g id="play/ic_launcher_APP-ticktrades-large" transform="translate(-20.000000, -201.000000)" fill="#FADB3F" fill-rule="nonzero">
            <path d="M86.2042181,220.352539 L62.7325385,220.352539 L62.7325385,284 L43.8799994,284 L43.8799994,220.352539 L20.8380072,220.352539 L20.8380072,205.796875 L86.2042181,205.796875 L86.2042181,220.352539 Z M106.525156,284 L88.3708589,284 L88.3708589,225.884766 L106.525156,225.884766 L106.525156,284 Z M87.2966402,210.899414 C87.2966402,208.321276 88.2276204,206.208667 90.0896089,204.561523 C91.9515974,202.91438 94.3685654,202.09082 97.3405855,202.09082 C100.312606,202.09082 102.729574,202.91438 104.591562,204.561523 C106.453551,206.208667 107.384531,208.321276 107.384531,210.899414 C107.384531,213.477552 106.453551,215.590161 104.591562,217.237305 C102.729574,218.884448 100.312606,219.708008 97.3405855,219.708008 C94.3685654,219.708008 91.9515974,218.884448 90.0896089,217.237305 C88.2276204,215.590161 87.2966402,213.477552 87.2966402,210.899414 Z M136.352929,271.109375 C138.89526,271.109375 140.864641,270.420092 142.261132,269.041504 C143.657624,267.662916 144.337956,265.738294 144.302148,263.267578 L161.274804,263.267578 C161.274804,269.641308 158.992112,274.86912 154.42666,278.951172 C149.861207,283.033224 143.979918,285.074219 136.782617,285.074219 C128.332054,285.074219 121.671964,282.424506 116.802148,277.125 C111.932332,271.825494 109.497461,264.485073 109.497461,255.103516 L109.497461,254.351562 C109.497461,248.479137 110.58062,243.296084 112.746972,238.802246 C114.913324,234.308409 118.037479,230.853039 122.119531,228.436035 C126.201583,226.019031 131.035519,224.810547 136.621484,224.810547 C144.17686,224.810547 150.174522,226.905252 154.614648,231.094727 C159.054774,235.284201 161.274804,240.9596 161.274804,248.121094 L144.302148,248.121094 C144.302148,245.113266 143.568106,242.803719 142.1,241.192383 C140.631893,239.581047 138.662512,238.775391 136.191797,238.775391 C131.501018,238.775391 128.761787,241.76527 127.974023,247.745117 C127.723371,249.642913 127.598047,252.256819 127.598047,255.586914 C127.598047,261.423532 128.296282,265.469715 129.692773,267.725586 C131.089264,269.981457 133.309294,271.109375 136.352929,271.109375 Z M186.376015,262.354492 L181.273476,267.457031 L181.273476,284 L163.17289,284 L163.17289,201.446289 L181.273476,201.446289 L181.273476,245.274414 L183.099648,242.857422 L196.742226,225.884766 L218.441445,225.884766 L198.085,249.786133 L219.784219,284 L199.051797,284 L186.376015,262.354492 Z M238.386406,211.436523 L238.386406,225.884766 L247.946953,225.884766 L247.946953,238.453125 L238.386406,238.453125 L238.386406,265.040039 C238.386406,267.224295 238.780282,268.746089 239.568047,269.605469 C240.355811,270.464848 241.913413,270.894531 244.240898,270.894531 C246.031272,270.894531 247.535163,270.78711 248.752617,270.572266 L248.752617,283.516602 C245.494137,284.555018 242.092479,285.074219 238.547539,285.074219 C232.317039,285.074219 227.715848,283.606134 224.743828,280.669922 C221.771808,277.733709 220.28582,273.275746 220.28582,267.295898 L220.28582,238.453125 L212.873711,238.453125 L212.873711,225.884766 L220.28582,225.884766 L220.28582,211.436523 L238.386406,211.436523 Z M284.327461,242.266602 L278.365547,241.836914 C272.672159,241.836914 269.019852,243.627261 267.408516,247.208008 L267.408516,284 L249.30793,284 L249.30793,225.884766 L266.280586,225.884766 L266.871406,233.350586 C269.915041,227.657198 274.158163,224.810547 279.600899,224.810547 C281.534502,224.810547 283.217428,225.025388 284.649727,225.455078 L284.327461,242.266602 Z M316.088828,284 C315.444294,282.818353 314.871383,281.081717 314.370078,278.790039 C311.039984,282.979513 306.385082,285.074219 300.405235,285.074219 C294.926692,285.074219 290.27179,283.418148 286.440391,280.105957 C282.608991,276.793766 280.693321,272.63121 280.693321,267.618164 C280.693321,261.316049 283.020771,256.553727 287.675742,253.331055 C292.330714,250.108382 299.098224,248.49707 307.978477,248.49707 L313.564414,248.49707 L313.564414,245.435547 C313.564414,240.100234 311.254867,237.432617 306.635703,237.432617 C302.338807,237.432617 300.190391,239.545226 300.190391,243.770508 L282.089805,243.770508 C282.089805,238.148735 284.479918,233.583351 289.260215,230.074219 C294.040512,226.565087 300.136643,224.810547 307.548789,224.810547 C314.960936,224.810547 320.815369,226.618797 325.112266,230.235352 C329.409162,233.851906 331.611289,238.811166 331.718711,245.113281 L331.718711,270.84082 C331.790326,276.176133 332.613886,280.258124 334.189414,283.086914 L334.189414,284 L316.088828,284 Z M304.755821,272.183594 C307.011691,272.183594 308.882603,271.7002 310.368613,270.733398 C311.854624,269.766597 312.91988,268.674485 313.564414,267.457031 L313.564414,258.165039 L308.300742,258.165039 C301.998628,258.165039 298.847617,260.993787 298.847617,266.651367 C298.847617,268.298511 299.402625,269.632319 300.512656,270.652832 C301.622688,271.673345 303.037062,272.183594 304.755821,272.183594 Z M333.563086,254.512695 C333.563086,245.310175 335.550371,238.059271 339.525,232.759766 C343.49963,227.46026 349.049704,224.810547 356.175391,224.810547 C361.367474,224.810547 365.73592,226.851542 369.28086,230.933594 L369.28086,201.5 L387.435157,201.5 L387.435157,284 L371.160743,284 L370.247657,277.769531 C366.52368,282.639347 361.797164,285.074219 356.067969,285.074219 C349.157127,285.074219 343.678666,282.424506 339.632422,277.125 C335.586178,271.825494 333.563086,264.288135 333.563086,254.512695 Z M351.663672,255.640625 C351.663672,265.953177 354.671455,271.109375 360.68711,271.109375 C364.697546,271.109375 367.562101,269.426449 369.28086,266.060547 L369.28086,243.931641 C367.633716,240.494123 364.804968,238.775391 360.794532,238.775391 C355.208566,238.775391 352.18288,243.287064 351.717383,252.310547 L351.663672,255.640625 Z M419.948477,285.074219 C411.032417,285.074219 403.81732,282.415554 398.302969,277.098145 C392.788619,271.780735 390.031485,264.861045 390.031485,256.338867 L390.031485,254.834961 C390.031485,248.890921 391.132548,243.645205 393.334707,239.097656 C395.536867,234.550107 398.750539,231.032076 402.975821,228.543457 C407.201102,226.054838 412.214073,224.810547 418.014883,224.810547 C426.178987,224.810547 432.624235,227.343887 437.350821,232.410645 C442.077407,237.477402 444.440665,244.540319 444.440665,253.599609 L444.440665,260.635742 L408.454336,260.635742 C409.098871,263.894222 410.513245,266.454418 412.6975,268.316406 C414.881756,270.178395 417.710504,271.109375 421.183829,271.109375 C426.913024,271.109375 431.388891,269.104187 434.611563,265.09375 L442.883047,274.869141 C440.627177,277.984391 437.431408,280.464021 433.295645,282.308105 C429.159882,284.15219 424.710871,285.074219 419.948477,285.074219 Z M417.907461,238.775391 C412.607956,238.775391 409.456946,242.28447 408.454336,249.302734 L426.716055,249.302734 L426.716055,247.90625 C426.78767,245.005845 426.053628,242.75896 424.513907,241.165527 C422.974185,239.572095 420.772059,238.775391 417.907461,238.775391 Z M476.255743,267.671875 C476.255743,266.132154 475.450087,264.896815 473.838751,263.96582 C472.34251,263.101326 469.595879,262.205969 465.598784,261.279726 L464.65418,261.06543 C460.142439,260.062821 456.418518,258.746916 453.482305,257.117676 C450.546093,255.488436 448.308159,253.510103 446.768438,251.182617 C445.228717,248.855132 444.458868,246.187515 444.458868,243.179688 C444.458868,237.844374 446.660994,233.449073 451.065313,229.993652 C455.469632,226.538231 461.234548,224.810547 468.360235,224.810547 C476.023034,224.810547 482.181826,226.547183 486.836797,230.020508 C491.491769,233.493832 493.819219,238.059217 493.819219,243.716797 L475.664922,243.716797 C475.664922,239.061826 473.212148,236.734375 468.306524,236.734375 C466.408728,236.734375 464.81532,237.262527 463.526251,238.318848 C462.237182,239.375168 461.592657,240.691073 461.592657,242.266602 C461.592657,243.877938 462.380409,245.184891 463.955938,246.1875 C465.459852,247.144536 467.82017,247.93843 471.036957,248.569202 L471.502325,248.658203 C474.957746,249.302738 477.992383,250.072587 480.606329,250.967773 C489.343352,253.975601 493.711797,259.364544 493.711797,267.134766 C493.711797,272.434271 491.357492,276.749007 486.648809,280.079102 C481.940127,283.409196 475.843996,285.074219 468.360235,285.074219 C463.382997,285.074219 458.942937,284.179045 455.039922,282.388672 C451.136908,280.598298 448.093319,278.163427 445.909063,275.083984 C443.724807,272.004542 442.632696,268.764014 442.632696,265.362305 L459.551641,265.362305 C459.623256,268.047865 460.51843,270.008295 462.237188,271.243652 C463.955947,272.47901 466.158073,273.09668 468.843633,273.09668 C471.314349,273.09668 473.167358,272.595383 474.402715,271.592773 C475.638073,270.590164 476.255743,269.283211 476.255743,267.671875 Z" id="Ticktrades"></path>
        </g>
    </g>
</svg>