<?xml version="1.0" standalone="no"?>
<!DOCTYPE svg PUBLIC "-//W3C//DTD SVG 20010904//EN"
 "http://www.w3.org/TR/2001/REC-SVG-20010904/DTD/svg10.dtd">
<svg version="1.0" xmlns="http://www.w3.org/2000/svg"
 width="700.000000pt" height="700.000000pt" viewBox="0 0 700.000000 700.000000"
 preserveAspectRatio="xMidYMid meet">
<metadata>
Created by potrace 1.11, written by Peter Selinger 2001-2013
</metadata>
<g transform="translate(0.000000,700.000000) scale(0.100000,-0.100000)"
fill="#000000" stroke="none">
<path d="M0 3500 l0 -3500 3500 0 3500 0 0 3500 0 3500 -3500 0 -3500 0 0
-3500z m5370 1275 l0 -365 -275 0 -276 0 3 -797 c3 -794 3 -798 25 -844 48
-103 121 -134 318 -134 72 0 154 4 183 8 l52 8 0 -365 0 -365 -52 -16 c-249
-74 -616 -91 -859 -40 -322 68 -533 246 -629 533 -62 185 -63 200 -67 1150
l-5 862 -324 0 -324 0 0 -1270 0 -1270 -510 0 -510 0 0 1270 0 1270 -275 0
-275 0 0 365 0 365 1900 0 1900 0 0 -365z"/>
</g>
</svg>
